HIERARCHY
ROOT Hips
{
	OFFSET -3.958830 18.904000 13.208200
	CHANNELS 6 Xposition Yposition Zposition Zrotation Yrotation Xrotation 
	JOINT LHipJoint
	{
		OFFSET 0.000000 0.000000 0.000000
		CHANNELS 3 Zrotation Yrotation Xrotation
		JOINT LeftUpLeg
		{
			OFFSET 1.800000 -1.400000 0.085000
			CHANNELS 3 Zrotation Yrotation Xrotation
			JOINT LeftLeg
			{
				OFFSET 2.215000 -6.000000 0.000000
				CHANNELS 3 Zrotation Yrotation Xrotation
				JOINT LeftFoot
				{
					OFFSET 2.500000 -6.900000 0.000000
					CHANNELS 3 Zrotation Yrotation Xrotation
					JOINT LeftToeBase
					{
						OFFSET 0.200000 -0.500000 1.950000
						CHANNELS 3 Zrotation Yrotation Xrotation
						End Site
						{
							OFFSET 0.000000 0.000000 0.000000
						}
					}
				}
			}
		}
	}
	JOINT RHipJoint
	{
		OFFSET 0.000000 0.000000 0.000000
		CHANNELS 3 Zrotation Yrotation Xrotation
		JOINT RightUpLeg
		{
			OFFSET -1.800000 -1.400000 0.085000
			CHANNELS 3 Zrotation Yrotation Xrotation
			JOINT RightLeg
			{
				OFFSET -2.215000 -6.000000 0.000000
				CHANNELS 3 Zrotation Yrotation Xrotation
				JOINT RightFoot
				{
					OFFSET -2.500000 -6.900000 0.000000
					CHANNELS 3 Zrotation Yrotation Xrotation
					JOINT RightToeBase
					{
						OFFSET -0.200000 -0.500000 1.950000
						CHANNELS 3 Zrotation Yrotation Xrotation
						End Site
						{
							OFFSET 0.000000 0.000000 0.000000
						}
					}
				}
			}
		}
	}
	JOINT LowerBack
	{
		OFFSET 0.000000 0.000000 0.000000
		CHANNELS 3 Zrotation Yrotation Xrotation
		JOINT Spine
		{
			OFFSET -0.087000 1.940000 -0.288900
			CHANNELS 3 Zrotation Yrotation Xrotation
			JOINT Spine1
			{
				OFFSET 0.000000 1.950000 0.060000
				CHANNELS 3 Zrotation Yrotation Xrotation
				JOINT Neck
				{
					OFFSET 0.000000 0.000000 0.000000
					CHANNELS 3 Zrotation Yrotation Xrotation
					JOINT Neck1
					{
						OFFSET 0.000000 1.600000 0.340000
						CHANNELS 3 Zrotation Yrotation Xrotation
						JOINT Head
						{
							OFFSET 0.000000 1.667000 -0.240000
							CHANNELS 3 Zrotation Yrotation Xrotation
							End Site
							{
								OFFSET 0.000000 0.000000 0.000000
							}
						}
					}
				}
				JOINT LeftShoulder
				{
					OFFSET 0.000000 0.000000 0.000000
					CHANNELS 3 Zrotation Yrotation Xrotation
					JOINT LeftArm
					{
						OFFSET 2.700000 1.550000 -0.730000
						CHANNELS 3 Zrotation Yrotation Xrotation
						JOINT LeftForeArm
						{
							OFFSET 5.450000 0.000000 0.000000
							CHANNELS 3 Zrotation Yrotation Xrotation
							JOINT LeftHand
							{
								OFFSET 3.450000 0.000000 0.000000
								CHANNELS 3 Zrotation Yrotation Xrotation
								JOINT LeftHandIndex1
								{
									OFFSET 0.750000 0.000000 0.000000
									CHANNELS 3 Zrotation Yrotation Xrotation
									End Site
									{
										OFFSET 0.000000 0.000000 0.000000
									}
								}
							}
						}
					}
				}
				JOINT RightShoulder
				{
					OFFSET 0.000000 0.000000 0.000000
					CHANNELS 3 Zrotation Yrotation Xrotation
					JOINT RightArm
					{
						OFFSET -2.700000 1.550000 -0.730000
						CHANNELS 3 Zrotation Yrotation Xrotation
						JOINT RightForeArm
						{
							OFFSET -5.450000 0.000000 0.000000
							CHANNELS 3 Zrotation Yrotation Xrotation
							JOINT RightHand
							{
								OFFSET -3.450000 0.000000 0.000000
								CHANNELS 3 Zrotation Yrotation Xrotation
								JOINT RightHandIndex1
								{
									OFFSET -0.750000 0.000000 0.000000
									CHANNELS 3 Zrotation Yrotation Xrotation
									End Site
									{
										OFFSET 0.000000 0.000000 0.000000
									}
								}
							}
						}
					}
				}
			}
		}
	}
}
MOTION
Frames: 13
Frame Time: 0.016667
-1.515590 16.752990 -1.068510 -10.046825 -25.667865 6.279356 -15.264458 14.356625 3.085866 27.897857 -1.966341 -5.098727 1.650456 5.331138 7.224911 -0.024163 5.480910 2.775642 0.163010 -0.006550 -0.125200 18.096217 -9.560570 2.688545 -3.744703 -0.187923 -12.149918 13.595763 -5.543658 7.765645 -0.009747 -3.335036 3.411582 0.135740 0.523670 0.000700 -2.976951 -5.636519 -7.489936 20.841822 -9.840292 7.175366 -13.454365 -7.748442 -1.231743 11.493762 -12.856770 -11.946423 -30.124644 18.256680 23.476034 7.162680 6.136630 4.998780 -7.832653 3.468526 1.400412 -64.227723 -3.959446 2.248041 -18.423000 -2.102176 -0.262586 -3.956689 3.112994 0.134990 0.245330 -0.351880 0.218700 -13.765749 6.116874 5.110119 -32.912613 -15.080621 2.208144 -30.244934 -3.646157 0.969631 3.108035 -1.700655 -0.263520 0.249220 0.097160 -0.024530 
-1.518230 16.754860 -1.066080 -10.091798 -25.839149 6.328737 -15.281323 14.399455 3.111088 27.996493 -1.975263 -5.125362 1.610425 5.362362 7.287386 -0.033606 5.503609 2.762622 0.170990 -0.003800 -0.110260 18.075977 -9.530902 2.682648 -3.715990 -0.177638 -12.146514 13.527580 -5.552394 7.849440 -0.013023 -3.317322 3.418650 0.136620 0.516290 0.003020 -2.915260 -5.763484 -7.520407 20.733742 -9.939424 7.308092 -13.152953 -7.849753 -1.635646 11.613124 -12.814096 -11.869018 -30.265502 18.654956 23.752513 7.077530 6.594960 4.898070 -8.053807 3.864257 1.167571 -64.646486 -3.637439 2.334011 -17.097883 -0.943562 -0.319383 -3.973434 3.085431 0.151390 0.243630 -0.344720 0.214280 -13.742829 5.782719 5.075584 -32.495184 -14.475009 2.011166 -30.547267 -4.124958 1.052147 3.109649 -1.690550 -0.266760 0.249660 0.095970 -0.035970 
-1.518330 16.756920 -1.065060 -10.115310 -26.025220 6.411106 -15.328361 14.520304 3.150480 28.085286 -1.976546 -5.340710 1.591752 5.424247 7.599106 -0.044875 5.537520 2.751545 0.156850 -0.026170 -0.109620 18.018791 -9.456340 2.680701 -3.785195 -0.169750 -12.153785 13.599713 -5.582244 7.887205 -0.011601 -3.287199 3.439859 0.123380 0.522880 -0.002300 -2.742908 -6.087997 -7.601757 20.136362 -10.050378 7.715907 -11.994846 -7.928106 -2.222978 11.776652 -12.689857 -11.985914 -30.544133 19.182035 24.243118 6.987980 7.131110 5.042440 -7.955456 4.385985 1.059025 -65.748599 -3.082790 2.117656 -16.863579 -0.880272 -0.333473 -3.982079 3.043588 0.177550 0.244710 -0.339760 0.211570 -13.944965 5.410640 5.231667 -31.329485 -13.869674 1.424464 -31.723194 -5.447608 1.340588 3.142411 -1.660389 -0.285240 0.266690 0.104600 -0.047500 
-1.515150 16.756410 -1.067200 -9.933719 -26.344953 6.351490 -15.396713 14.709571 3.193825 28.048139 -1.947851 -5.673987 1.516901 5.526472 8.204255 -0.048875 5.564580 2.739480 0.134530 -0.056380 -0.111070 17.931072 -9.366195 2.679663 -4.036306 -0.174888 -12.186251 13.703653 -5.625517 7.987311 -0.005503 -3.246949 3.462848 0.101580 0.528120 -0.010820 -2.477083 -6.548304 -7.724836 18.901163 -10.088998 8.368042 -10.486719 -7.891989 -2.910146 12.069137 -12.422871 -12.256834 -30.711229 19.719942 25.046021 7.160720 7.535510 5.389010 -7.850953 4.704971 1.046104 -66.892174 -2.669615 1.950068 -16.937024 -1.283154 -0.311084 -3.980999 3.006142 0.201320 0.241520 -0.333830 0.203970 -14.258553 5.234684 5.581861 -29.434965 -13.033284 0.432217 -33.271963 -7.409304 1.797004 3.207595 -1.626795 -0.301350 0.282020 0.115430 -0.056310 
-1.507890 16.747750 -1.067070 -9.753452 -26.652260 6.333671 -15.460907 14.858610 3.208225 27.979708 -1.933084 -5.920978 1.433613 5.631560 8.885776 -0.044841 5.593720 2.728170 0.115970 -0.083250 -0.112740 17.853756 -9.310336 2.663817 -4.409704 -0.180276 -12.370443 13.847721 -5.735071 8.310653 0.008973 -3.249238 3.471910 0.081840 0.534590 -0.004160 -2.241623 -6.865953 -7.815072 17.583602 -9.984689 8.728765 -8.809414 -7.867705 -3.146528 12.206200 -12.172190 -12.238652 -30.321459 19.825495 25.570811 6.653310 8.022900 5.963300 -7.898742 4.911884 0.998905 -67.953083 -2.530764 1.819062 -17.226705 -1.726232 -0.278379 -3.995134 2.998424 0.199390 0.256920 -0.339500 0.197840 -14.233287 5.041927 5.742275 -27.792221 -11.994990 -0.587477 -35.080337 -9.816425 2.393239 3.253660 -1.629391 -0.303990 0.273190 0.121380 -0.062840 
-1.499090 16.739030 -1.066120 -9.726656 -27.135978 6.163114 -15.501073 14.983158 3.188846 27.961574 -1.931853 -5.859048 1.567800 5.716578 9.684831 -0.038716 5.625855 2.719123 0.104210 -0.090730 -0.120290 17.806272 -9.289131 2.635233 -4.613100 -0.246331 -12.401747 13.749430 -5.836281 8.765821 0.012845 -3.250381 3.476749 0.074570 0.537050 -0.007270 -2.089955 -7.082421 -7.840944 16.751058 -10.008189 9.030282 -7.475721 -7.980318 -2.783360 12.115609 -11.986034 -12.399289 -30.262084 19.989682 25.852842 6.350370 8.330400 6.133380 -7.244879 4.757485 1.390789 -69.170867 -2.759860 1.405241 -18.112113 -4.084778 -0.183624 -3.975689 2.999977 0.201000 0.260300 -0.336830 0.199690 -14.556564 5.049007 5.878640 -25.778500 -10.878755 -1.917440 -37.570434 -12.054492 3.075651 3.307166 -1.654788 -0.308040 0.276990 0.122210 -0.062420 
-1.485120 16.726230 -1.067560 -9.607305 -27.542067 5.985016 -15.530168 15.064568 3.155771 27.824668 -1.885885 -5.846303 1.666110 5.774913 10.260137 -0.027841 5.628241 2.724731 0.073480 -0.086330 -0.166880 17.777439 -9.275944 2.597628 -5.009612 -0.324148 -12.451866 13.713758 -5.920301 9.102100 0.027153 -3.279458 3.480711 0.076020 0.561580 -0.023570 -1.995356 -7.223114 -7.818622 16.071230 -10.165872 9.162598 -6.409093 -8.349639 -2.049221 11.837193 -11.887926 -12.567159 -30.152598 20.163716 25.406932 5.932950 8.845820 6.416560 -6.138247 4.329974 2.007728 -70.434278 -3.194287 0.976332 -19.543926 -6.430038 -0.052711 -3.966993 3.011677 0.171270 0.281710 -0.351580 0.205640 -15.040019 5.215538 5.915002 -23.386570 -9.250708 -3.573117 -40.605314 -14.957489 4.046678 3.364593 -1.696726 -0.313050 0.292700 0.133110 -0.044210 
-1.467260 16.721500 -1.074340 -9.217789 -27.545698 5.249892 -15.585374 15.145227 3.134785 27.647524 -1.880036 -5.712503 1.751402 5.790177 10.687308 -0.038586 5.643128 2.706702 0.130290 -0.052040 -0.097420 17.720554 -9.270742 2.549115 -5.688102 -0.526091 -12.018279 13.729489 -6.047264 9.376020 -0.003861 -3.328754 3.442818 0.091430 0.516740 0.004910 -1.804207 -7.363780 -7.852684 14.367023 -9.643977 9.680782 -4.383666 -8.093174 -1.283688 11.251052 -11.655270 -12.362038 -30.153383 19.700873 26.126419 5.509340 8.406320 5.253240 -4.782843 4.007414 2.338064 -71.653283 -5.338043 2.138633 -21.178436 -7.932985 0.254235 -3.921520 3.061602 0.193480 0.260350 -0.319230 0.201740 -15.162988 5.205257 5.630850 -21.920965 -8.356033 -4.763341 -43.769397 -17.714639 5.330872 3.390662 -1.753163 -0.288100 0.269340 0.106220 -0.061950 
-1.448170 16.720790 -1.079480 -8.918859 -27.690382 4.592597 -15.666988 15.264009 3.168689 27.548327 -1.876020 -5.409395 1.816479 5.800290 10.628560 -0.067368 5.695696 2.684467 0.126080 -0.063410 -0.084280 17.635704 -9.209827 2.498511 -6.149128 -0.667044 -11.577328 13.620909 -6.131847 9.639772 -0.015023 -3.340145 3.423803 0.095050 0.502110 0.003680 -1.524722 -7.679369 -7.946253 12.705558 -9.128600 10.602357 -2.149613 -7.726392 -1.201258 10.965648 -11.530143 -12.293280 -30.731028 19.354544 26.810991 4.861220 7.951660 4.130590 -3.657802 3.962543 2.815218 -72.670694 -6.771854 2.768560 -22.567756 -11.159151 0.676511 -3.885061 3.054493 0.229850 0.245670 -0.302160 0.185230 -15.495075 5.239806 5.253253 -20.026350 -6.885299 -6.107110 -48.259595 -19.766650 6.810243 3.381435 -1.797730 -0.306340 0.290420 0.123400 -0.078230 
-1.416370 16.729150 -1.087890 -8.915314 -27.853112 3.540988 -15.717510 15.341851 3.178589 27.665162 -1.861021 -4.679345 1.992440 5.839699 10.711832 -0.084921 5.769633 2.647037 0.170330 -0.038870 -0.019240 17.588842 -9.174438 2.445653 -6.558140 -0.933504 -10.587607 13.494167 -6.214488 9.723498 -0.052308 -3.377966 3.397944 0.110890 0.444410 0.002390 -1.356579 -7.877741 -8.007131 11.864244 -8.497797 11.734877 -0.814623 -7.181758 -0.385220 10.718653 -11.254328 -12.322371 -31.290970 19.074138 28.068379 4.354970 7.421450 2.680170 -2.832028 3.267810 3.433391 -72.476045 -9.021222 3.517051 -24.017984 -15.786573 1.359773 -3.809848 3.081798 0.279500 0.207010 -0.267560 0.169350 -15.823670 5.567329 4.950437 -18.204701 -6.191877 -7.395983 -52.395481 -21.832838 8.427148 3.374591 -1.848745 -0.305360 0.290820 0.108680 -0.111000 
-1.386170 16.737060 -1.098290 -8.845632 -27.977168 2.429143 -15.776905 15.404250 3.169757 27.689748 -1.818442 -3.924332 2.218905 5.862668 10.775215 -0.092148 5.833619 2.619089 0.182930 -0.023380 0.004330 17.538379 -9.144987 2.389618 -7.014557 -1.212453 -9.569088 13.544115 -6.388387 9.942035 -0.081251 -3.463664 3.363288 0.120470 0.412620 0.000940 -1.170673 -8.027505 -8.051615 10.696295 -7.784745 12.815472 0.805721 -6.735760 0.898502 10.397540 -11.050385 -12.284583 -31.537150 18.611032 28.918378 3.476150 6.968230 1.370360 -2.055342 2.579101 4.261747 -72.620416 -11.055821 3.578315 -24.423999 -22.355148 2.099584 -3.757148 3.100131 0.303310 0.190890 -0.245900 0.152770 -16.024830 5.958609 4.483479 -16.635648 -5.206519 -8.770342 -57.092335 -23.678889 10.158000 3.336311 -1.908417 -0.304220 0.298440 0.111620 -0.125840 
-1.356430 16.743370 -1.110100 -8.447245 -27.909456 1.082872 -15.853812 15.495128 3.156601 27.391983 -1.773822 -3.031516 2.532640 5.820612 10.637360 -0.071352 5.854462 2.621182 0.220930 0.015280 0.038800 17.468372 -9.115197 2.322632 -7.643038 -1.514874 -8.477817 13.519715 -6.571516 10.330999 -0.104929 -3.573347 3.329188 0.139510 0.377580 -0.004080 -0.917659 -8.240669 -8.091178 8.999406 -6.760141 13.936848 2.550479 -5.988245 2.033644 10.069317 -10.882801 -12.139259 -31.617717 17.661673 29.312457 2.890550 5.962390 0.633360 -1.220997 2.159464 5.089148 -72.509455 -13.439989 4.094716 -25.038415 -29.822933 3.155727 -3.688265 3.169055 0.297760 0.175170 -0.237410 0.153290 -16.220605 6.203668 3.900953 -14.707175 -4.314470 -10.006710 -62.648011 -25.030098 12.040202 3.301053 -2.027711 -0.285450 0.288730 0.086790 -0.131510 
-1.320920 16.753620 -1.124790 -8.160587 -27.839450 -0.345300 -15.962866 15.605142 3.156852 27.225971 -1.689318 -2.141149 2.687169 5.857636 10.585985 -0.046310 5.929296 2.600405 0.233570 0.032560 0.050420 17.379173 -9.030102 2.240130 -8.067538 -1.794374 -7.249435 13.330663 -6.712157 10.656403 -0.124212 -3.670828 3.292899 0.146230 0.350230 0.003600 -0.592685 -8.573015 -8.145786 7.254121 -5.611074 15.355792 4.696213 -5.239075 3.652835 9.813364 -10.892895 -12.069745 -31.906665 16.268728 29.084294 1.601670 4.859960 -0.324670 -0.636771 1.545940 6.148019 -72.398349 -15.966729 4.298217 -24.761403 -39.492608 4.161677 -3.630070 3.242023 0.290680 0.167660 -0.227960 0.145740 -16.345941 6.794521 3.413977 -13.606672 -4.262776 -11.253939 -67.035217 -26.449011 13.795531 3.260328 -2.121794 -0.266990 0.276850 0.083330 -0.132010 
